<svg width="104" height="105" viewBox="0 0 104 105" fill="none" xmlns="http://www.w3.org/2000/svg">
<path d="M48.598 0.0820627C48.3746 0.102568 47.6637 0.174339 47.0239 0.225603C32.2683 1.56873 18.447 9.60701 9.6932 21.9618C4.81867 28.8312 1.70101 36.6234 0.522995 44.877C0.106629 47.7581 0.0558529 48.6091 0.0558529 52.5154C0.0558529 56.4218 0.106629 57.2728 0.522995 60.1538C3.34616 79.8497 17.2284 96.3978 36.0563 102.529C39.4278 103.626 42.9821 104.375 47.0239 104.826C48.598 105 55.402 105 56.9761 104.826C63.9528 104.047 69.8631 102.304 75.6922 99.2994C76.5859 98.838 76.7585 98.715 76.6367 98.6125C76.5554 98.551 72.7472 93.3937 68.1773 87.16L59.8703 75.8305L49.4612 60.2769C43.7336 51.7259 39.0216 44.7335 38.981 44.7335C38.9403 44.7232 38.8997 51.6337 38.8794 60.0718C38.8489 74.8462 38.8388 75.4409 38.656 75.7895C38.392 76.2919 38.1889 76.497 37.7623 76.7225C37.4374 76.8866 37.153 76.9173 35.6196 76.9173H33.8627L33.3956 76.62C33.0909 76.4252 32.8675 76.1689 32.7152 75.8715L32.5019 75.4101L32.5222 54.8531L32.5527 34.2858L32.8675 33.8859C33.03 33.6706 33.3753 33.3937 33.619 33.2605C34.0354 33.0554 34.1978 33.0349 35.9547 33.0349C38.0264 33.0349 38.3717 33.1169 38.9099 33.7116C39.0622 33.8756 44.6984 42.4471 51.4415 52.7717C58.1846 63.0964 67.4055 77.1942 71.9348 84.1149L80.1605 96.6952L80.5769 96.4184C84.2633 93.9987 88.1629 90.5537 91.2501 86.9652C97.8205 79.3473 102.055 70.0581 103.477 60.1538C103.893 57.2728 103.944 56.4218 103.944 52.5154C103.944 48.6091 103.893 47.7581 103.477 44.877C100.654 25.1812 86.7716 8.63299 67.9438 2.50175C64.623 1.41494 61.089 0.666478 57.1284 0.21535C56.1535 0.112821 49.4409 3.94471e-05 48.598 0.0820627ZM69.8631 31.8045C70.3506 32.0506 70.7466 32.5222 70.8888 33.0144C70.97 33.281 70.9903 38.9816 70.97 51.8285L70.9396 70.2632L67.7204 65.2803L64.491 60.2974V46.8968C64.491 38.2331 64.5316 33.363 64.5925 33.1272C64.755 32.553 65.1105 32.1019 65.5979 31.8353C66.0143 31.62 66.1666 31.5995 67.761 31.5995C69.264 31.5995 69.528 31.62 69.8631 31.8045Z" fill="white"/>
<path d="M79.6528 96.9208C79.2973 97.1463 79.1856 97.3001 79.5004 97.1258C79.7239 96.9925 80.0894 96.7157 80.0285 96.7054C79.998 96.7054 79.8254 96.808 79.6528 96.9208ZM78.9521 97.3821C78.7693 97.5257 78.7693 97.5359 78.9927 97.4232C79.1145 97.3616 79.2161 97.2899 79.2161 97.2694C79.2161 97.1873 79.1653 97.2078 78.9521 97.3821ZM78.4443 97.6897C78.2615 97.8333 78.2615 97.8435 78.4849 97.7307C78.6068 97.6692 78.7083 97.5975 78.7083 97.5769C78.7083 97.4949 78.6576 97.5154 78.4443 97.6897ZM77.9365 97.9973C77.7537 98.1409 77.7537 98.1511 77.9772 98.0383C78.099 97.9768 78.2006 97.905 78.2006 97.8845C78.2006 97.8025 78.1498 97.823 77.9365 97.9973ZM77.1647 98.4074C76.7788 98.6125 76.7991 98.6945 77.185 98.4997C77.3577 98.4074 77.4897 98.3152 77.4897 98.2947C77.4897 98.2229 77.4795 98.2331 77.1647 98.4074Z" fill="white"/>
</svg>
